<svg version="1.1" xmlns="http://www.w3.org/2000/svg" viewBox="0 0 1140 548" width="1140" height="548" filter="invert(93%) hue-rotate(180deg)">
  <!-- svg-source:excalidraw -->
  
  <defs>
    <style class="style-fonts">
      @font-face {
        font-family: "Virgil";
        src: url("https://excalidraw.com/Virgil.woff2");
      }
      @font-face {
        font-family: "Cascadia";
        src: url("https://excalidraw.com/Cascadia.woff2");
      }
      @font-face {
        font-family: "Assistant";
        src: url("https://excalidraw.com/Assistant-Regular.woff2");
      }
    </style>
    
  </defs>
  <rect x="0" y="0" width="1140" height="548" fill="#ffffff"></rect><g stroke-linecap="round" transform="translate(10 10) rotate(0 146 127)"><path d="M183.75 32 C202.59 48.86, 221.42 65.72, 255.25 96 M183.75 32 C206.58 52.44, 229.42 72.88, 255.25 96 M255.25 96 C292 128, 292 128, 255.25 160 M255.25 96 C292 128, 292 128, 255.25 160 M255.25 160 C228.26 183.4, 201.27 206.81, 183.75 222 M255.25 160 C230.88 181.13, 206.52 202.26, 183.75 222 M183.75 222 C147 254, 147 254, 110.25 222 M183.75 222 C147 254, 147 254, 110.25 222 M110.25 222 C90.3 205.17, 70.35 188.35, 36.75 160 M110.25 222 C81.57 197.81, 52.9 173.62, 36.75 160 M36.75 160 C0 128, 0 128, 36.75 96 M36.75 160 C0 128, 0 128, 36.75 96 M36.75 96 C65.94 70.59, 95.12 45.17, 110.25 32 M36.75 96 C63.79 72.45, 90.83 48.91, 110.25 32 M110.25 32 C147 0, 147 0, 183.75 32 M110.25 32 C147 0, 147 0, 183.75 32" stroke="#1e1e1e" stroke-width="1" fill="none"></path></g><g transform="translate(72 80) rotate(0 80.45596313476562 15.22864839779021)"><text x="0" y="21.34447359434275" font-family="Virgil, Segoe UI Emoji" font-size="24.36583743646433px" fill="#2f9e44" text-anchor="start" style="white-space: pre;" direction="ltr" dominant-baseline="alphabetic">Create Store</text></g><g stroke-linecap="round"><g transform="translate(296 138) rotate(0 57 1)"><path d="M0 0 C19 0.33, 95 1.67, 114 2 M0 0 C19 0.33, 95 1.67, 114 2" stroke="#1e1e1e" stroke-width="1" fill="none"></path></g><g transform="translate(296 138) rotate(0 57 1)"><path d="M90.36 10.14 C99.67 6.93, 108.98 3.73, 114 2 M90.36 10.14 C99.24 7.08, 108.12 4.03, 114 2" stroke="#1e1e1e" stroke-width="1" fill="none"></path></g><g transform="translate(296 138) rotate(0 57 1)"><path d="M90.66 -6.96 C99.85 -3.43, 109.05 0.1, 114 2 M90.66 -6.96 C99.43 -3.6, 108.19 -0.23, 114 2" stroke="#1e1e1e" stroke-width="1" fill="none"></path></g></g><mask></mask><g stroke-linecap="round"><g transform="translate(702 142) rotate(0 57 1)"><path d="M0 0 C19 0.33, 95 1.67, 114 2 M0 0 C19 0.33, 95 1.67, 114 2" stroke="#1e1e1e" stroke-width="1" fill="none"></path></g><g transform="translate(702 142) rotate(0 57 1)"><path d="M90.36 10.14 C97.48 7.69, 104.6 5.24, 114 2 M90.36 10.14 C99.04 7.15, 107.72 4.16, 114 2" stroke="#1e1e1e" stroke-width="1" fill="none"></path></g><g transform="translate(702 142) rotate(0 57 1)"><path d="M90.66 -6.96 C97.69 -4.26, 104.71 -1.57, 114 2 M90.66 -6.96 C99.23 -3.67, 107.8 -0.38, 114 2" stroke="#1e1e1e" stroke-width="1" fill="none"></path></g></g><mask></mask><g stroke-linecap="round" transform="translate(402 20) rotate(0 153 120)"><path d="M192.5 30.25 C209.05 43.6, 225.61 56.96, 267.5 90.75 M192.5 30.25 C217.63 50.52, 242.76 70.79, 267.5 90.75 M267.5 90.75 C306 121, 306 121, 267.5 151.25 M267.5 90.75 C306 121, 306 121, 267.5 151.25 M267.5 151.25 C239.99 172.71, 212.48 194.17, 192.5 209.75 M267.5 151.25 C247.09 167.17, 226.69 183.08, 192.5 209.75 M192.5 209.75 C154 240, 154 240, 115.5 209.75 M192.5 209.75 C154 240, 154 240, 115.5 209.75 M115.5 209.75 C85.48 186.94, 55.46 164.14, 38.5 151.25 M115.5 209.75 C86.58 187.78, 57.66 165.81, 38.5 151.25 M38.5 151.25 C0 121, 0 121, 38.5 90.75 M38.5 151.25 C0 121, 0 121, 38.5 90.75 M38.5 90.75 C64.32 70.46, 90.14 50.17, 115.5 30.25 M38.5 90.75 C62.03 72.26, 85.57 53.77, 115.5 30.25 M115.5 30.25 C154 0, 154 0, 192.5 30.25 M115.5 30.25 C154 0, 154 0, 192.5 30.25" stroke="#1e1e1e" stroke-width="1" fill="none"></path></g><g transform="translate(490 78) rotate(0 74.8835678100586 15.5)"><text x="0" y="21.724800000000005" font-family="Virgil, Segoe UI Emoji" font-size="24.800000000000004px" fill="#2f9e44" text-anchor="start" style="white-space: pre;" direction="ltr" dominant-baseline="alphabetic">Create Slice</text></g><g transform="translate(452 134) rotate(0 110.19380187988281 20.227952255325363)"><text x="0" y="14.175748940532007" font-family="Virgil, Segoe UI Emoji" font-size="16.18236180426028px" fill="#f08c00" text-anchor="start" style="white-space: pre;" direction="ltr" dominant-baseline="alphabetic">/features/todo/todoSlice.js</text><text x="0" y="34.40370119585736" font-family="Virgil, Segoe UI Emoji" font-size="16.18236180426028px" fill="#f08c00" text-anchor="start" style="white-space: pre;" direction="ltr" dominant-baseline="alphabetic"></text></g><g stroke-linecap="round" transform="translate(810 34) rotate(0 141 110)"><path d="M177.5 27.75 C194.19 41.17, 210.88 54.6, 246.5 83.25 M177.5 27.75 C199.03 45.07, 220.56 62.38, 246.5 83.25 M246.5 83.25 C282 111, 282 111, 246.5 138.75 M246.5 83.25 C282 111, 282 111, 246.5 138.75 M246.5 138.75 C225.75 154.84, 204.99 170.93, 177.5 192.25 M246.5 138.75 C227.89 153.18, 209.27 167.61, 177.5 192.25 M177.5 192.25 C142 220, 142 220, 106.5 192.25 M177.5 192.25 C142 220, 142 220, 106.5 192.25 M106.5 192.25 C83.87 175.2, 61.24 158.14, 35.5 138.75 M106.5 192.25 C90.86 180.46, 75.21 168.67, 35.5 138.75 M35.5 138.75 C0 111, 0 111, 35.5 83.25 M35.5 138.75 C0 111, 0 111, 35.5 83.25 M35.5 83.25 C54.8 68.17, 74.09 53.08, 106.5 27.75 M35.5 83.25 C61.42 62.99, 87.34 42.73, 106.5 27.75 M106.5 27.75 C142 0, 142 0, 177.5 27.75 M106.5 27.75 C142 0, 142 0, 177.5 27.75" stroke="#1e1e1e" stroke-width="1" fill="none"></path></g><g transform="translate(842 126) rotate(0 114.60517120361328 15.298974025907398)"><text x="0" y="21.44304199471181" font-family="Virgil, Segoe UI Emoji" font-size="24.47835844145184px" fill="#2f9e44" text-anchor="start" style="white-space: pre;" direction="ltr" dominant-baseline="alphabetic">Create Components</text></g><g stroke-linecap="round"><g transform="translate(954 248) rotate(0 -0.4041001622274507 37.37926500604354)"><path d="M0 0 C-0.13 12.46, -0.67 62.3, -0.81 74.76 M0 0 C-0.13 12.46, -0.67 62.3, -0.81 74.76" stroke="#1e1e1e" stroke-width="1" fill="none"></path></g><g transform="translate(954 248) rotate(0 -0.4041001622274507 37.37926500604354)"><path d="M-9.1 51.18 C-6.45 58.71, -3.8 66.24, -0.81 74.76 M-9.1 51.18 C-6.91 57.41, -4.72 63.65, -0.81 74.76" stroke="#1e1e1e" stroke-width="1" fill="none"></path></g><g transform="translate(954 248) rotate(0 -0.4041001622274507 37.37926500604354)"><path d="M8 51.36 C5.18 58.83, 2.37 66.31, -0.81 74.76 M8 51.36 C5.67 57.55, 3.34 63.74, -0.81 74.76" stroke="#1e1e1e" stroke-width="1" fill="none"></path></g></g><mask></mask><g stroke-linecap="round" transform="translate(772 328) rotate(0 179 105)"><path d="M225 26.5 C248.54 40.68, 272.09 54.86, 313 79.5 M225 26.5 C256.05 45.2, 287.11 63.91, 313 79.5 M313 79.5 C358 106, 358 106, 313 132.5 M313 79.5 C358 106, 358 106, 313 132.5 M313 132.5 C287.35 147.36, 261.71 162.23, 225 183.5 M313 132.5 C280.86 151.13, 248.72 169.75, 225 183.5 M225 183.5 C180 210, 180 210, 135 183.5 M225 183.5 C180 210, 180 210, 135 183.5 M135 183.5 C113.88 171.53, 92.76 159.56, 45 132.5 M135 183.5 C115.9 172.68, 96.79 161.85, 45 132.5 M45 132.5 C0 106, 0 106, 45 79.5 M45 132.5 C0 106, 0 106, 45 79.5 M45 79.5 C79.77 59.02, 114.54 38.55, 135 26.5 M45 79.5 C68.73 65.53, 92.46 51.55, 135 26.5 M135 26.5 C180 0, 180 0, 225 26.5 M135 26.5 C180 0, 180 0, 225 26.5" stroke="#1e1e1e" stroke-width="1" fill="none"></path></g><g transform="translate(868 390) rotate(0 82.57991790771484 37.5)"><text x="0" y="17.52" font-family="Virgil, Segoe UI Emoji" font-size="20px" fill="#f08c00" text-anchor="start" style="white-space: pre;" direction="ltr" dominant-baseline="alphabetic">Wrap everything</text><text x="0" y="42.519999999999996" font-family="Virgil, Segoe UI Emoji" font-size="20px" fill="#f08c00" text-anchor="start" style="white-space: pre;" direction="ltr" dominant-baseline="alphabetic">with the provider</text><text x="0" y="67.52" font-family="Virgil, Segoe UI Emoji" font-size="20px" fill="#f08c00" text-anchor="start" style="white-space: pre;" direction="ltr" dominant-baseline="alphabetic">in main.jsx</text></g><g transform="translate(88 138) rotate(0 64.36994171142578 12.5)"><text x="0" y="17.52" font-family="Virgil, Segoe UI Emoji" font-size="20px" fill="#f08c00" text-anchor="start" style="white-space: pre;" direction="ltr" dominant-baseline="alphabetic">/app/store.js</text></g></svg>